<?xml version="1.0" encoding="UTF-8" standalone="no"?>
<svg
   width="16"
   height="16"
   viewBox="0 0 24 24"
   fill="none"
   stroke="currentColor"
   stroke-width="1"
   stroke-linecap="round"
   stroke-linejoin="round"
   class="lucide lucide-compass"
   version="1.1"
   id="svg1"
   sodipodi:docname="compass (1).svg"
   xml:space="preserve"
   inkscape:version="1.3 (0e150ed6c4, 2023-07-21)"
   xmlns:inkscape="http://www.inkscape.org/namespaces/inkscape"
   xmlns:sodipodi="http://sodipodi.sourceforge.net/DTD/sodipodi-0.dtd"
   xmlns="http://www.w3.org/2000/svg"
   xmlns:svg="http://www.w3.org/2000/svg"><defs
     id="defs1" /><sodipodi:namedview
     id="namedview1"
     pagecolor="#ffffff"
     bordercolor="#000000"
     borderopacity="0.25"
     inkscape:showpageshadow="2"
     inkscape:pageopacity="0.0"
     inkscape:pagecheckerboard="0"
     inkscape:deskcolor="#d1d1d1"
     inkscape:zoom="11.313709"
     inkscape:cx="-15.998291"
     inkscape:cy="9.9436891"
     inkscape:window-width="1920"
     inkscape:window-height="1017"
     inkscape:window-x="-8"
     inkscape:window-y="-8"
     inkscape:window-maximized="1"
     inkscape:current-layer="svg1" /><circle
     cx="12.419649"
     cy="16.306231"
     id="circle1"
     style="stroke-width:0.732023"
     r="7.3201985" /><polygon
     points="9.88,9.88 16.24,7.76 14.12,14.12 7.76,16.24 "
     id="polygon1"
     transform="matrix(0.73201985,0,0,0.73201985,3.6354111,7.5219944)" /><g
     style="fill:none;stroke:currentColor;stroke-width:1;stroke-linecap:round;stroke-linejoin:round"
     id="g1"
     transform="matrix(0.78471466,0,0,0.78471466,2.8187643,-3.5156651)"><path
       d="m 22,10 v 6 M 2,10 8.6185749,6.6907125 12,5 22,10 12,15 Z"
       id="path1"
       sodipodi:nodetypes="cccccccc" /><path
       d="m 6,12 v 5 c 3,3 9,3 12,0 v -5"
       id="path2" /></g><path
     style="fill:#000000;stroke-width:0.106663"
     d="m 11.357566,11.290573 c -0.378687,-0.05832 -0.982378,-0.213614 -1.341536,-0.345085 -0.6813915,-0.249442 -1.717,-0.814917 -1.717,-0.937545 0,-0.1269539 1.5114404,-0.9991175 2.081696,-1.2012508 1.935049,-0.6858945 3.928954,-0.4717969 5.805622,0.6233857 0.292593,0.1707405 0.531991,0.3505336 0.531991,0.3995195 0,0.1357969 -1.362515,0.9209006 -1.98918,1.1462186 -0.563179,0.202474 -2.029197,0.463032 -2.451774,0.435727 -0.127202,-0.0082 -0.541136,-0.06266 -0.919819,-0.120999 z"
     id="path3" /><path
     style="fill:#000000;stroke-width:0.0922634"
     d="M 7.7495137,9.9663441 C 7.6277539,9.8397093 7.5882625,6.0292101 7.708803,6.0382153 c 0.037319,0.00278 1.1438003,0.5677929 2.458852,1.2555669 l 2.390999,1.2504973 -0.592087,0.063091 C 10.992126,8.7112084 10.007116,9.0223936 8.93276,9.5658099 8.3744541,9.8482052 7.9042515,10.079256 7.8878659,10.079256 c -0.016374,0 -0.078643,-0.05081 -0.1383537,-0.1129187 z"
     id="path4" /><path
     style="fill:#000000;stroke-width:0.0732611"
     d="M 11.031973,23.828122 C 9.4074942,23.520194 7.7649317,22.583875 6.7044975,21.36131 6.1477685,20.719462 5.8769216,20.302493 5.5003225,19.507485 4.3844416,17.151837 4.5792534,14.363833 6.0147966,12.14471 6.200271,11.857996 6.6313703,11.333633 6.9727947,10.97946 L 7.5935666,10.335507 7.3752226,10.12632 7.156879,9.9171339 V 8.0062731 6.0954137 L 5.682977,5.3642675 C 4.2353159,4.6461383 3.9561346,4.4470826 4.0507577,4.2004992 4.0782157,4.1289443 5.8062182,3.2223477 8.1548413,2.0472913 L 12.211498,0.01767611 16.295996,2.0689851 20.380495,4.120294 v 2.5552005 c 0,2.4932341 -0.0037,2.5576148 -0.149921,2.6547429 -0.127857,0.084892 -0.173684,0.082901 -0.311358,-0.013518 -0.160101,-0.1121318 -0.16143,-0.1308152 -0.16143,-2.2334928 0,-1.3812022 -0.02579,-2.1204158 -0.07411,-2.1204158 -0.04078,0 -0.601214,0.2639341 -1.245438,0.5865197 L 17.266902,6.135847 v 1.9320154 c 0,1.6503025 -0.01644,1.9456696 -0.112825,2.0256526 -0.09789,0.08124 -0.04597,0.154654 0.392255,0.554615 1.288515,1.176002 2.192329,2.869497 2.43616,4.564683 0.127405,0.885794 0.04936,2.221077 -0.178097,3.046871 -0.735324,2.669678 -2.75337,4.68837 -5.431308,5.433054 -0.840111,0.233626 -2.473709,0.299818 -3.341118,0.135407 z m 3.194596,-0.76325 c 2.376981,-0.634538 4.290257,-2.551891 4.963242,-4.973812 0.132154,-0.475587 0.15654,-0.759227 0.15558,-1.809434 -10e-4,-1.140499 -0.0177,-1.299647 -0.197669,-1.888805 -0.258243,-0.845405 -0.672074,-1.656142 -1.208902,-2.368361 -0.408887,-0.542481 -1.256393,-1.347303 -1.418756,-1.347303 -0.04018,0 -0.160553,0.06171 -0.267508,0.137127 -0.316638,0.223279 -0.965047,0.531331 -1.505094,0.715053 -2.01261,0.68468 -4.645011,0.448443 -6.2920676,-0.564665 L 8.1055372,10.749474 7.5332811,11.317719 c -1.0649353,1.057471 -1.6946534,2.231792 -1.9939927,3.718469 -0.1262042,0.626798 -0.1051197,2.012418 0.041247,2.710659 0.581728,2.775125 2.8353685,4.95096 5.6540356,5.458833 0.632948,0.114036 2.337882,0.03381 2.991999,-0.140811 z m -1.28801,-11.877791 c 0.408205,-0.04189 1.023132,-0.157576 1.366504,-0.257081 0.684799,-0.198448 1.496618,-0.577099 1.496618,-0.698059 0,-0.107001 -0.839858,-0.4767524 -1.484794,-0.6536885 C 13.287227,9.2957701 11.831331,9.2613912 10.819931,9.4956781 10.30461,9.6150506 9.7264799,9.8292745 9.2078591,10.093025 l -0.4758679,0.24201 0.5741528,0.270497 c 0.657058,0.309556 1.381382,0.503717 2.173136,0.582527 0.302202,0.03008 0.587174,0.0593 0.633272,0.06494 0.0461,0.0056 0.417801,-0.02403 0.826007,-0.06591 z M 8.664514,9.6533977 c 0.872285,-0.509734 2.335683,-0.9542887 3.141352,-0.9542887 0.183019,0 0.332763,-0.024989 0.332763,-0.055545 0,-0.048431 -4.117602,-2.1422874 -4.2128446,-2.1422874 -0.019963,0 -0.036295,0.7144467 -0.036295,1.5876594 0,1.3745237 0.016268,1.6056442 0.1212475,1.7216341 0.066687,0.073687 0.1289634,0.1339762 0.1383981,0.1339762 0.00945,0 0.2413556,-0.1310152 0.5153803,-0.2911506 z M 16.590638,8.125276 c 0.01084,-0.8931993 -0.0056,-1.6222185 -0.03663,-1.6200431 -0.03099,0.00218 -0.99592,0.4765311 -2.144286,1.0541243 l -2.08794,1.0501684 0.439567,0.045999 c 1.350826,0.1413716 2.140986,0.3571311 3.097481,0.8457955 0.311063,0.1589181 0.598538,0.2797207 0.638831,0.2684482 0.04525,-0.012653 0.0808,-0.6414281 0.09298,-1.644496 z M 15.801871,6.0974727 c 1.893693,-0.9473774 3.443079,-1.7385283 3.443079,-1.7581133 0,-0.019591 -1.574195,-0.8228435 -3.49821,-1.7850185 L 12.248529,0.80493213 8.7503104,2.5543388 C 6.8262905,3.5165127 5.2520918,4.3200925 5.2520918,4.340072 c 0,0.06294 6.8435122,3.4717036 6.9783042,3.4759036 0.07062,0.00223 1.677783,-0.7711259 3.571475,-1.7185029 z"
     id="path5" /><path
     style="fill:#000000;stroke-width:0.0867683"
     d="M 15.813965,9.3967543 C 14.92282,9.0093525 13.685978,8.6830893 12.85357,8.6158408 c -0.339302,-0.027408 -0.678827,-0.068666 -0.754501,-0.091676 -0.11423,-0.034738 4.390754,-2.1423969 4.609224,-2.1564212 0.08433,-0.00542 0.09084,1.8714729 0.0096,2.7328227 -0.03262,0.3453837 -0.08423,0.6250956 -0.114655,0.621582 -0.03041,-0.00351 -0.385549,-0.1499398 -0.789143,-0.3253923 z"
     id="path6" /><path
     style="fill:#000000;stroke-width:0.0777759"
     d="M 8.7351041,6.2074989 5.1575817,4.3830491 8.7304359,2.5372231 12.303288,0.69139735 15.92861,2.5367922 19.55393,4.3821871 16.492154,5.9456432 c -1.683977,0.8599008 -3.313271,1.681097 -3.62065,1.824881 l -0.558877,0.2614251 z"
     id="path7" /></svg>
