<?xml version="1.0" encoding="utf-8"?>
<!-- Generator: Adobe Illustrator 26.1.0, SVG Export Plug-In . SVG Version: 6.00 Build 0)  -->
<svg version="1.1" id="Warstwa_1" xmlns="http://www.w3.org/2000/svg" xmlns:xlink="http://www.w3.org/1999/xlink" x="0px" y="0px"
	 viewBox="0 0 606.53 594.14" style="enable-background:new 0 0 606.53 594.14;" xml:space="preserve">
<style type="text/css">
	.st0{fill:none;stroke:#010202;stroke-width:5;stroke-linecap:round;stroke-linejoin:round;}
	.st1{fill:#9AD5E7;}
</style>
<g>
	<g>
		<path d="M304.59,594.21c-93.98,0-187.96-0.16-281.94,0.22c-10.7,0.04-22.22-9.94-22.2-22.28C0.82,388.52,0.83,204.89,0.42,21.26
			C0.4,9.72,11.82,0.01,22.11,0.05c82.65,0.31,165.3,0.17,247.95,0.17c105.65,0,211.29,0.12,316.94-0.2
			c10.04-0.03,19.89,9.9,19.88,19.79c-0.25,184.63-0.19,369.26-0.19,553.89c0,12.49-8.08,20.5-20.66,20.5
			C492.22,594.21,398.41,594.21,304.59,594.21z M29.46,301.44c-6.74,0-14.5,0-22.77,0c0,2.18,0,4.13,0,6.08
			c0,88.65,0,177.31,0,265.96c0,10.07,5.75,15.73,16.01,15.73c91.49,0.01,182.97,0,274.46,0c1.76,0,3.52,0,5.63,0
			c0-8.31,0-15.92,0-23.72c1.74,0,3.12,0,5.05,0c0,7.98,0,15.72,0,23.72c2.52,0,4.5,0,6.48,0c90.32,0,180.64-0.13,270.96,0.19
			c9.57,0.03,16.57-7.24,16.55-16.51c-0.21-88.65-0.12-177.31-0.12-265.96c0-1.78,0-3.55,0-5.84c-8.63,0-16.71,0-25.11,0
			c0.2-1.94,0.34-3.32,0.52-5.05c8.3,0,16.24,0,24.59,0c0-1.83,0-3.3,0-4.76c0-90.49,0-180.97,0-271.46
			c0-8.63-6.2-14.62-15.08-14.62c-91.15,0-182.31,0-273.46,0c-1.75,0-3.5,0-5.6,0c0,5.37,0,9.98,0,14.69c-1.74,0-3.12,0-5.05,0
			c0-5.02,0-9.75,0-14.54c-1.36-0.07-2.18-0.15-3.01-0.15C206.85,5.21,114.2,5.2,21.55,5.23C12.69,5.23,6.7,11.33,6.7,20.1
			c0,90.32,0,180.64,0.01,270.96c0,1.61,0.15,3.22,0.24,5.16c6.83,0,16.31-0.23,22.76,0.08L29.46,301.44z"/>
		<path d="M302.38,474.91c0-57.83,0-115.7,0-173.95c-61.08,0-122.02,0-183.31,0c-0.14-1.73-0.25-3.11-0.41-5.05
			c61.41,0,122.48,0,183.93,0c0-65.12,0-129.72,0-194.68c1.73-0.15,3.11-0.27,5.05-0.44c0,65.08,0,129.81,0,194.93
			c57.45,0,115.38,0,172.68,0c0.16,1.73,0.29,3.11,0.47,5.05c-57.41,0-115.48,0-172.82,0c0,58.29,0,116.06,0,174.1L302.38,474.91z"
			/>
		<path d="M735.98,438.72"/>
	</g>
</g>
<g>
	<path class="st0" d="M274.57,503.19h64.06c4.42,0,8.01,3.42,8.01,7.64v38.18c0,4.22-3.59,7.64-8.01,7.64h-64.06
		c-4.42,0-8.01-3.42-8.01-7.64v-38.18C266.56,506.61,270.15,503.19,274.57,503.19z"/>
	<path class="st0" d="M322.62,556.65v-61.09c0-4.22-3.59-7.64-8.01-7.64h-16.02c-4.42,0-8.01,3.42-8.01,7.64v61.09"/>
</g>
<g>
	<path class="st0" d="M529.27,329.7c18.02,0,32.62-14.61,32.62-32.62s-14.61-32.62-32.62-32.62s-32.62,14.61-32.62,32.62
		S511.26,329.7,529.27,329.7z"/>
	<path class="st0" d="M529.27,305.23c4.5,0,8.16-3.65,8.16-8.16s-3.65-8.16-8.16-8.16c-4.5,0-8.16,3.65-8.16,8.16
		S524.77,305.23,529.27,305.23z"/>
	<path class="st0" d="M529.27,256.3v8.16"/>
	<path class="st0" d="M529.27,337.85v-8.16"/>
	<path class="st0" d="M549.66,332.39l-4.08-7.05"/>
	<path class="st0" d="M525.19,290.02l-16.31-28.26"/>
	<path class="st0" d="M564.59,317.46l-7.05-4.08"/>
	<path class="st0" d="M493.96,276.69l7.05,4.08"/>
	<path class="st0" d="M537.43,297.08h32.62"/>
	<path class="st0" d="M488.5,297.08h8.16"/>
	<path class="st0" d="M564.59,276.69l-7.05,4.08"/>
	<path class="st0" d="M493.96,317.46l7.05-4.08"/>
	<path class="st0" d="M549.66,261.76l-4.08,7.05"/>
	<path class="st0" d="M525.19,304.13l-16.31,28.26"/>
</g>
<path class="st0" d="M279.07,40.96l26.26-13.13l26.26,13.13"/>
<path class="st0" d="M325.02,54.09l13.13,6.56V86.9c0,3.63-2.94,6.56-6.56,6.56h-52.51c-3.63,0-6.56-2.94-6.56-6.56V60.65
	l13.13-6.56"/>
<path class="st0" d="M311.89,93.47V80.34c0-3.63-2.94-6.56-6.56-6.56l0,0c-3.63,0-6.56,2.94-6.56,6.56v13.13"/>
<path class="st0" d="M325.02,37.68v55.79"/>
<path class="st0" d="M285.64,37.68v55.79"/>
<circle class="st0" cx="305.33" cy="50.8" r="6.56"/>
<path d="M81.08,405.45"/>
<g>
	<path class="st0" d="M36.51,269.94H59c8.28,0,14.99,6.71,14.99,14.99v52.48c0-6.21-5.03-11.24-11.24-11.24H36.51V269.94z"/>
	<path class="st0" d="M111.47,269.94H88.98c-8.28,0-14.99,6.71-14.99,14.99v52.48c0-6.21,5.03-11.24,11.24-11.24h26.24V269.94z"/>
</g>
<circle class="st1" cx="417.32" cy="401.23" r="21.06"/>
</svg>